<?xml version="1.0" encoding="UTF-8" standalone="no"?>
<!-- Created with Inkscape (http://www.inkscape.org/) -->

<svg
   xmlns:dc="http://purl.org/dc/elements/1.1/"
   xmlns:cc="http://creativecommons.org/ns#"
   xmlns:rdf="http://www.w3.org/1999/02/22-rdf-syntax-ns#"
   xmlns:svg="http://www.w3.org/2000/svg"
   xmlns="http://www.w3.org/2000/svg"
   xmlns:sodipodi="http://sodipodi.sourceforge.net/DTD/sodipodi-0.dtd"
   xmlns:inkscape="http://www.inkscape.org/namespaces/inkscape"
   version="1.1"
   id="svg2"
   xml:space="preserve"
   width="400"
   height="400"
   viewBox="0 0 400 400"
   sodipodi:docname="logo.svg"
   inkscape:version="0.92.2 2405546, 2018-03-11"
   inkscape:export-filename="/home/abraham/src/xalapacode.com/static/img/favicon-16x16.png"
   inkscape:export-xdpi="3.8399999"
   inkscape:export-ydpi="3.8399999"><metadata
     id="metadata8"><rdf:RDF><cc:Work
         rdf:about=""><dc:format>image/svg+xml</dc:format><dc:type
           rdf:resource="http://purl.org/dc/dcmitype/StillImage" /><dc:title></dc:title></cc:Work></rdf:RDF></metadata><defs
     id="defs6"><clipPath
       clipPathUnits="userSpaceOnUse"
       id="clipPath18"><path
         d="M 0,360 H 588 V 0 H 0 Z"
         id="path16"
         inkscape:connector-curvature="0" /></clipPath></defs><sodipodi:namedview
     pagecolor="#ffffff"
     bordercolor="#666666"
     borderopacity="1"
     objecttolerance="10"
     gridtolerance="10"
     guidetolerance="10"
     inkscape:pageopacity="0"
     inkscape:pageshadow="2"
     inkscape:window-width="1920"
     inkscape:window-height="1016"
     id="namedview4"
     showgrid="false"
     inkscape:snap-bbox="true"
     inkscape:snap-bbox-midpoints="true"
     inkscape:zoom="1.9666667"
     inkscape:cx="174.88136"
     inkscape:cy="199.32203"
     inkscape:window-x="0"
     inkscape:window-y="30"
     inkscape:window-maximized="1"
     inkscape:current-layer="g10" /><g
     id="g10"
     inkscape:groupmode="layer"
     inkscape:label="logo"
     transform="matrix(1.3333333,0,0,-1.3333333,0,400)"><g
       id="g12"
       transform="matrix(0.79837617,0,0,0.79837617,-85.160692,-34.052364)"><g
         id="g14"
         clip-path="url(#clipPath18)"><g
           id="g20"
           transform="translate(295.8697,287.3664)"><path
             d="M 0,0 C 6.52,8.752 14.018,16.598 22.285,23.43 15.789,30.85 8.437,37.501 0.381,43.227 -7.808,37.406 -15.266,30.626 -21.84,23.057 -13.749,16.313 -6.403,8.594 0,0"
             style="fill:#2ba3bf;fill-opacity:1;fill-rule:nonzero;stroke:none"
             id="path22"
             inkscape:connector-curvature="0" /></g><g
           id="g24"
           transform="translate(243.215,227.9195)"><path
             d="m 0,0 c 0,31.564 11.623,60.409 30.815,82.504 -13.721,11.437 -29.57,20.077 -46.581,25.397 -25.281,-34.09 -34.232,-79.495 -20.09,-122.924 14.108,-43.329 47.955,-74.71 88.338,-87.435 -0.099,0.133 -0.192,0.269 -0.29,0.403 C 20.577,-79.188 0,-42.001 0,0"
             style="fill:#2ba3bf;fill-opacity:1;fill-rule:nonzero;stroke:none"
             id="path26"
             inkscape:connector-curvature="0" /></g><g
           id="g28"
           transform="translate(295.4069,125.8641)"><path
             d="m 0,0 c -25.004,34.035 -33.808,79.208 -19.734,122.43 4.7,14.436 11.603,27.536 20.197,39.072 -6.403,8.595 -13.749,16.313 -21.84,23.058 C -40.569,162.465 -52.192,133.619 -52.192,102.055 -52.192,60.055 -31.615,22.867 0,0"
             style="fill:#164f75;fill-opacity:1;fill-rule:nonzero;stroke:none"
             id="path30"
             inkscape:connector-curvature="0" /></g><g
           id="g32"
           transform="translate(364.2905,335.821)"><path
             d="m 0,0 c -16.827,-5.263 -32.518,-13.772 -46.136,-25.025 19.384,-22.142 31.132,-51.137 31.132,-82.876 0,-42.064 -20.637,-79.3 -52.333,-102.159 39.979,12.909 73.425,44.134 87.427,87.135 C 34.232,-79.495 25.281,-34.091 0,0"
             style="fill:#2ba3bf;fill-opacity:1;fill-rule:nonzero;stroke:none"
             id="path34"
             inkscape:connector-curvature="0" /></g><g
           id="g36"
           transform="translate(349.2866,227.9195)"><path
             d="m 0,0 c 0,31.74 -11.748,60.735 -31.132,82.877 -8.267,-6.832 -15.765,-14.678 -22.285,-23.43 8.594,-11.536 15.496,-24.637 20.197,-39.073 14.129,-43.39 5.206,-88.752 -20.024,-122.832 0.305,0.096 0.607,0.201 0.911,0.299 C -20.637,-79.3 0,-42.063 0,0"
             style="fill:#164f75;fill-opacity:1;fill-rule:nonzero;stroke:none"
             id="path38"
             inkscape:connector-curvature="0" /></g><g
           id="g40"
           transform="translate(295.4069,125.8641)"><path
             d="m 0,0 c 0.193,-0.14 0.383,-0.284 0.576,-0.422 0.02,0.006 0.04,0.013 0.06,0.019 C 25.865,33.677 34.789,79.039 20.66,122.43 15.959,136.866 9.057,149.966 0.463,161.502 -8.131,149.966 -15.034,136.866 -19.734,122.43 -33.808,79.208 -25.004,34.035 0,0"
             style="fill:#0092ff;fill-opacity:1;fill-rule:nonzero;stroke:none"
             id="path42"
             inkscape:connector-curvature="0" /></g><g
           id="g44"
           transform="translate(295.4069,125.8641)"><path
             d="m 0,0 c 0.193,-0.14 0.383,-0.284 0.576,-0.422 0.02,0.006 0.04,0.013 0.06,0.019 C 25.865,33.677 34.789,79.039 20.66,122.43 15.959,136.866 9.057,149.966 0.463,161.502 -8.131,149.966 -15.034,136.866 -19.734,122.43 -33.808,79.208 -25.004,34.035 0,0"
             style="fill:#292f51;fill-opacity:1;fill-rule:nonzero;stroke:none"
             id="path46"
             inkscape:connector-curvature="0" /></g><g
           id="g48"
           transform="translate(182.2163,317.3217)"><path
             d="m 0,0 c -2.632,0 -5.263,-0.293 -7.895,-0.877 -2.631,-0.586 -4.989,-1.535 -7.072,-2.851 -2.084,-1.316 -3.783,-2.998 -5.099,-5.044 -1.316,-2.047 -1.974,-4.534 -1.974,-7.456 v -0.22 c 0,-0.147 -0.038,-3.711 -0.11,-10.69 -0.073,-6.982 -0.109,-17.418 -0.109,-31.306 0,-6.433 -1.025,-11.952 -3.07,-16.557 -2.048,-4.605 -4.789,-8.517 -8.224,-11.733 1.973,-1.973 3.673,-4.13 5.099,-6.469 1.425,-2.34 2.593,-4.734 3.508,-7.182 0.913,-2.45 1.59,-4.879 2.029,-7.292 0.438,-2.412 0.658,-4.715 0.658,-6.908 l -0.22,-42.215 c 0,-2.999 0.676,-5.538 2.029,-7.621 1.352,-2.084 3.087,-3.819 5.209,-5.208 2.119,-1.388 4.476,-2.394 7.072,-3.016 2.594,-0.62 5.135,-0.932 7.621,-0.932 l 0.072,-0.029 c 10.146,-4.068 10.1,-18.447 -0.072,-22.449 v 0 c -2.925,0 -6.069,0.312 -9.43,0.932 -3.363,0.621 -6.689,1.59 -9.978,2.905 -3.29,1.316 -6.434,2.999 -9.43,5.045 -2.999,2.047 -5.648,4.533 -7.95,7.456 -2.303,2.924 -4.15,6.288 -5.538,10.088 -1.389,3.8 -2.083,8.076 -2.083,12.829 l 0.219,41.996 c 0,2.557 -0.438,4.879 -1.315,6.963 -0.878,2.083 -2.084,3.873 -3.619,5.373 -1.535,1.497 -3.344,2.667 -5.428,3.508 -2.083,0.84 -4.331,1.261 -6.743,1.261 -3.144,0 -5.795,1.078 -7.95,3.235 -2.157,2.155 -3.234,4.806 -3.234,7.95 0,1.535 0.291,2.977 0.877,4.331 0.584,1.351 1.37,2.558 2.357,3.618 0.987,1.059 2.174,1.882 3.564,2.467 1.388,0.585 2.851,0.878 4.386,0.878 1.974,0 3.964,0.274 5.976,0.822 2.01,0.548 3.838,1.461 5.483,2.741 1.644,1.278 2.996,2.997 4.057,5.154 1.058,2.155 1.589,4.841 1.589,8.059 0,13.45 0.036,23.666 0.11,30.648 0.072,6.979 0.11,10.762 0.11,11.348 0,6.213 1.278,11.75 3.837,16.612 2.558,4.861 5.922,8.937 10.088,12.227 4.167,3.289 8.918,5.792 14.255,7.511 5.335,1.716 10.782,2.576 16.338,2.576 v 0 C 10.018,18.523 10.243,4.425 0.355,0.153 Z"
             style="fill:#4d4a58;fill-opacity:1;fill-rule:nonzero;stroke:none"
             id="path50"
             inkscape:connector-curvature="0" /></g><g
           id="g52"
           transform="translate(406.8812,339.8)"><path
             d="m 0,0 c 5.556,0 11.003,-0.86 16.338,-2.577 5.337,-1.718 10.087,-4.221 14.255,-7.511 4.166,-3.289 7.529,-7.365 10.087,-12.226 2.56,-4.862 3.838,-10.4 3.838,-16.612 0,-0.586 0.038,-4.369 0.11,-11.349 0.074,-6.981 0.11,-17.198 0.11,-30.647 0,-3.218 0.53,-5.904 1.589,-8.059 1.061,-2.157 2.412,-3.876 4.057,-5.154 1.645,-1.28 3.473,-2.193 5.483,-2.741 2.012,-0.548 4.002,-0.823 5.976,-0.823 1.535,0 2.998,-0.293 4.385,-0.877 1.39,-0.586 2.577,-1.408 3.564,-2.467 0.987,-1.061 1.774,-2.267 2.358,-3.619 0.586,-1.353 0.877,-2.796 0.877,-4.33 0,-3.144 -1.078,-5.795 -3.235,-7.951 -2.155,-2.156 -4.805,-3.234 -7.949,-3.234 -2.413,0 -4.66,-0.422 -6.744,-1.261 -2.083,-0.841 -3.893,-2.011 -5.427,-3.509 -1.535,-1.499 -2.741,-3.289 -3.619,-5.373 -0.877,-2.083 -1.315,-4.405 -1.315,-6.963 l 0.219,-41.996 c 0,-4.753 -0.695,-9.029 -2.084,-12.829 -1.387,-3.8 -3.235,-7.163 -5.537,-10.088 -2.303,-2.923 -4.952,-5.409 -7.95,-7.456 -2.996,-2.045 -6.14,-3.728 -9.43,-5.044 -3.289,-1.315 -6.615,-2.284 -9.978,-2.906 -3.361,-0.62 -6.505,-0.931 -9.43,-0.931 v 0 c -10.302,3.915 -10.347,18.471 -0.071,22.451 l 0.071,0.027 c 2.486,0 5.026,0.312 7.621,0.932 2.596,0.622 4.953,1.628 7.072,3.015 2.121,1.39 3.857,3.125 5.209,5.209 1.353,2.083 2.029,4.622 2.029,7.62 l -0.22,42.216 c 0,2.193 0.22,4.495 0.657,6.908 0.439,2.412 1.116,4.841 2.029,7.291 0.915,2.449 2.084,4.843 3.509,7.183 1.425,2.338 3.125,4.496 5.099,6.469 -3.436,3.216 -6.177,7.127 -8.224,11.733 -2.046,4.605 -3.07,10.123 -3.07,16.557 0,13.888 -0.036,24.323 -0.11,31.305 -0.072,6.98 -0.109,10.544 -0.109,10.691 v 0.219 c 0,2.923 -0.658,5.409 -1.974,7.457 -1.316,2.045 -3.016,3.728 -5.099,5.044 -2.083,1.315 -4.441,2.265 -7.072,2.851 -2.632,0.584 -5.264,0.877 -7.895,0.877 l -0.364,0.163 C -10.101,-17.948 -9.874,-4.047 0,0 Z"
             style="fill:#4d4a58;fill-opacity:1;fill-rule:nonzero;stroke:none"
             id="path54"
             inkscape:connector-curvature="0" /></g></g></g></g></svg>